<svg width="733" height="395" viewBox="306 55 733 420" fill="none" xmlns="http://www.w3.org/2000/svg">
    <g clip-path="url(#clip0_65_321)">
        <g clip-path="url(#clip1_65_321)">
            <g clip-path="url(#clip2_65_321)">
                <g clip-path="url(#clip3_65_321)">
                    <path d="M327.418 174V80.56H346.362L355.45 110.256C356.389 113.243 357.157 115.973 357.754 118.448C358.351 120.923 358.735 122.715 358.906 123.824C359.077 122.715 359.461 120.923 360.058 118.448C360.655 115.973 361.381 113.243 362.234 110.256L370.938 80.56H389.882V174H374.906V144.944C374.906 140.677 375.034 136.027 375.29 130.992C375.546 125.957 375.845 120.923 376.186 115.888C376.527 110.853 376.911 106.075 377.338 101.552C377.85 97.0293 378.277 93.0613 378.618 89.648L366.074 133.808H351.482L338.554 89.648C338.981 92.8907 339.407 96.7307 339.834 101.168C340.261 105.52 340.645 110.213 340.986 115.248C341.413 120.197 341.754 125.232 342.01 130.352C342.266 135.472 342.394 140.336 342.394 144.944V174H327.418ZM401.48 174L425.032 80.56H445.64L469.32 174H452.936L447.816 151.344H422.984L417.864 174H401.48ZM425.928 138.288H444.872L439.24 113.2C438.301 109.019 437.491 105.264 436.808 101.936C436.125 98.5227 435.656 96.048 435.4 94.512C435.144 96.048 434.675 98.5227 433.992 101.936C433.395 105.264 432.584 108.976 431.56 113.072L425.928 138.288Z" fill="#A571E6"/>
                    <path d="M581.637 172.707C581.954 173.022 581.731 173.562 581.285 173.562H493.875C493.598 173.562 493.375 173.339 493.375 173.062V81.9375C493.375 81.6614 493.598 81.4375 493.875 81.4375H581.285C581.731 81.4375 581.954 81.9784 581.637 82.2927L536.358 127.145C536.161 127.34 536.161 127.66 536.358 127.855L581.637 172.707Z" fill="#A571E6" stroke="#A571E6"/>
                    <path d="M609.389 174V80.56H665.453V94.512H625.133V118.832H660.973V132.656H625.133V160.048H665.453V174H609.389Z" fill="#A571E6"/>
                </g>
                <path d="M779.4 175.28C775.731 175.28 772.787 174.213 770.568 172.08C768.435 169.947 767.368 167.045 767.368 163.376C767.368 159.707 768.435 156.805 770.568 154.672C772.787 152.453 775.731 151.344 779.4 151.344C783.069 151.344 785.971 152.453 788.104 154.672C790.323 156.805 791.432 159.707 791.432 163.376C791.432 167.045 790.323 169.947 788.104 172.08C785.971 174.213 783.069 175.28 779.4 175.28ZM852.31 175.408C842.838 175.408 835.329 172.805 829.782 167.6C824.321 162.309 821.59 155.227 821.59 146.352H837.59C837.59 151.045 838.913 154.715 841.558 157.36C844.203 160.005 847.787 161.328 852.31 161.328C856.833 161.328 860.417 160.048 863.062 157.488C865.707 154.843 867.03 151.173 867.03 146.48V95.408H845.27V80.56H883.03V146.48C883.03 155.44 880.257 162.523 874.71 167.728C869.249 172.848 861.782 175.408 852.31 175.408ZM898.98 174L922.532 80.56H943.14L966.82 174H950.436L945.316 151.344H920.484L915.364 174H898.98ZM923.428 138.288H942.372L936.74 113.2C935.801 109.019 934.991 105.264 934.308 101.936C933.625 98.5227 933.156 96.048 932.9 94.512C932.644 96.048 932.175 98.5227 931.492 101.936C930.895 105.264 930.084 108.976 929.06 113.072L923.428 138.288ZM980.978 174V80.56H1010.55C1016.78 80.56 1022.15 81.712 1026.67 84.016C1031.28 86.32 1034.87 89.5627 1037.43 93.744C1039.99 97.84 1041.27 102.704 1041.27 108.336C1041.27 114.48 1039.69 119.899 1036.53 124.592C1033.46 129.285 1029.28 132.613 1023.99 134.576L1042.55 174H1024.63L1008.37 136.88H996.978V174H980.978ZM996.978 122.8H1010.55C1015.07 122.8 1018.61 121.563 1021.17 119.088C1023.73 116.613 1025.01 113.2 1025.01 108.848C1025.01 104.411 1023.73 100.955 1021.17 98.48C1018.61 95.92 1015.07 94.64 1010.55 94.64H996.978V122.8Z" fill="#A571E6"/>
            </g>
            <g clip-path="url(#clip4_65_321)">
                <path d="M420.591 454V360.56H440.175L466.159 436.08C465.903 433.349 465.604 430.149 465.263 426.48C465.007 422.725 464.794 418.928 464.623 415.088C464.452 411.163 464.367 407.749 464.367 404.848V360.56H478.959V454H459.375L433.647 378.48C433.818 380.955 434.031 383.941 434.287 387.44C434.543 390.939 434.756 394.523 434.927 398.192C435.098 401.861 435.183 405.232 435.183 408.304V454H420.591ZM526.525 455.28C520.552 455.28 515.346 454.171 510.909 451.952C506.557 449.648 503.186 446.448 500.797 442.352C498.493 438.171 497.341 433.264 497.341 427.632V386.928C497.341 381.296 498.493 376.432 500.797 372.336C503.186 368.155 506.557 364.955 510.909 362.736C515.346 360.432 520.552 359.28 526.525 359.28C532.584 359.28 537.789 360.432 542.141 362.736C546.493 364.955 549.821 368.155 552.125 372.336C554.514 376.432 555.709 381.253 555.709 386.8V427.632C555.709 433.264 554.514 438.171 552.125 442.352C549.821 446.448 546.493 449.648 542.141 451.952C537.789 454.171 532.584 455.28 526.525 455.28ZM526.525 441.2C530.877 441.2 534.162 440.048 536.381 437.744C538.6 435.355 539.709 431.984 539.709 427.632V386.928C539.709 382.491 538.6 379.12 536.381 376.816C534.162 374.512 530.877 373.36 526.525 373.36C522.173 373.36 518.888 374.512 516.669 376.816C514.45 379.12 513.341 382.491 513.341 386.928V427.632C513.341 431.984 514.45 435.355 516.669 437.744C518.973 440.048 522.258 441.2 526.525 441.2ZM595.211 454V375.408H570.763V360.56H635.787V375.408H611.339V454H595.211Z" fill="#DB5C5C"/>
                <path d="M746.4 455.28C742.731 455.28 739.787 454.213 737.568 452.08C735.435 449.947 734.368 447.045 734.368 443.376C734.368 439.707 735.435 436.805 737.568 434.672C739.787 432.453 742.731 431.344 746.4 431.344C750.069 431.344 752.971 432.453 755.104 434.672C757.323 436.805 758.432 439.707 758.432 443.376C758.432 447.045 757.323 449.947 755.104 452.08C752.971 454.213 750.069 455.28 746.4 455.28ZM796.398 454L786.798 360.56H800.622L806.254 425.84C806.425 427.291 806.553 429.083 806.638 431.216C806.809 433.264 806.937 435.355 807.022 437.488C807.193 439.621 807.278 441.499 807.278 443.12C807.449 441.499 807.619 439.621 807.79 437.488C807.961 435.355 808.131 433.264 808.302 431.216C808.558 429.083 808.771 427.291 808.942 425.84L816.622 360.56H830.062L837.23 425.84C837.486 427.291 837.699 429.083 837.87 431.216C838.126 433.264 838.382 435.355 838.638 437.488C838.894 439.621 839.107 441.499 839.278 443.12C839.363 441.499 839.449 439.621 839.534 437.488C839.619 435.355 839.705 433.264 839.79 431.216C839.961 429.083 840.131 427.291 840.302 425.84L845.806 360.56H859.502L849.39 454H831.726L824.814 388.464C824.643 386.843 824.43 384.965 824.174 382.832C824.003 380.613 823.833 378.437 823.662 376.304C823.491 374.085 823.363 372.208 823.278 370.672C823.193 372.208 823.022 374.085 822.766 376.304C822.595 378.437 822.425 380.613 822.254 382.832C822.083 384.965 821.913 386.843 821.742 388.464L814.19 454H796.398ZM865.98 454L889.532 360.56H910.14L933.82 454H917.436L912.316 431.344H887.484L882.364 454H865.98ZM890.428 418.288H909.372L903.74 393.2C902.801 389.019 901.991 385.264 901.308 381.936C900.625 378.523 900.156 376.048 899.9 374.512C899.644 376.048 899.175 378.523 898.492 381.936C897.895 385.264 897.084 388.976 896.06 393.072L890.428 418.288ZM947.978 454V360.56H977.546C983.775 360.56 989.151 361.712 993.674 364.016C998.282 366.32 1001.87 369.563 1004.43 373.744C1006.99 377.84 1008.27 382.704 1008.27 388.336C1008.27 394.48 1006.69 399.899 1003.53 404.592C1000.46 409.285 996.277 412.613 990.986 414.576L1009.55 454H991.626L975.37 416.88H963.978V454H947.978ZM963.978 402.8H977.546C982.069 402.8 985.61 401.563 988.17 399.088C990.73 396.613 992.01 393.2 992.01 388.848C992.01 384.411 990.73 380.955 988.17 378.48C985.61 375.92 982.069 374.64 977.546 374.64H963.978V402.8Z" fill="#DB5C5C"/>
            </g>
        </g>
    </g>
    <defs>
        <clipPath id="clip0_65_321">
            <rect width="1356" height="498" fill="white"/>
        </clipPath>
        <clipPath id="clip1_65_321">
            <rect width="1356" height="498" fill="white"/>
        </clipPath>
        <clipPath id="clip2_65_321">
            <rect width="804" height="255" fill="white" transform="translate(310)"/>
        </clipPath>
        <clipPath id="clip3_65_321">
            <rect width="355" height="169" fill="white" transform="translate(320 43)"/>
        </clipPath>
        <clipPath id="clip4_65_321">
            <rect width="680" height="255" fill="white" transform="translate(401 280)"/>
        </clipPath>
    </defs>
</svg>