<svg width="1424" height="1226" viewBox="0 0 1424 1226" fill="none" xmlns="http://www.w3.org/2000/svg">
<g clip-path="url(#clip0_65_321)">
<g clip-path="url(#clip1_65_321)">
<g clip-path="url(#clip2_65_321)">
<path d="M323.418 400V306.56H342.362L351.45 336.256C352.389 339.243 353.157 341.973 353.754 344.448C354.351 346.923 354.735 348.715 354.906 349.824C355.077 348.715 355.461 346.923 356.058 344.448C356.655 341.973 357.381 339.243 358.234 336.256L366.938 306.56H385.882V400H370.906V370.944C370.906 366.677 371.034 362.027 371.29 356.992C371.546 351.957 371.845 346.923 372.186 341.888C372.527 336.853 372.911 332.075 373.338 327.552C373.85 323.029 374.277 319.061 374.618 315.648L362.074 359.808H347.482L334.554 315.648C334.981 318.891 335.407 322.731 335.834 327.168C336.261 331.52 336.645 336.213 336.986 341.248C337.413 346.197 337.754 351.232 338.01 356.352C338.266 361.472 338.394 366.336 338.394 370.944V400H323.418ZM397.48 400L421.032 306.56H441.64L465.32 400H448.936L443.816 377.344H418.984L413.864 400H397.48ZM421.928 364.288H440.872L435.24 339.2C434.301 335.019 433.491 331.264 432.808 327.936C432.125 324.523 431.656 322.048 431.4 320.512C431.144 322.048 430.675 324.523 429.992 327.936C429.395 331.264 428.584 334.976 427.56 339.072L421.928 364.288Z" fill="#A571E6"/>
<path d="M577.637 398.707C577.954 399.022 577.731 399.562 577.285 399.562H489.875C489.598 399.562 489.375 399.339 489.375 399.062V307.938C489.375 307.661 489.598 307.438 489.875 307.438H577.285C577.731 307.438 577.954 307.978 577.637 308.293L532.358 353.145C532.161 353.34 532.161 353.66 532.358 353.855L577.637 398.707Z" fill="#A571E6" stroke="#A571E6"/>
<path d="M605.389 400V306.56H661.453V320.512H621.133V344.832H656.973V358.656H621.133V386.048H661.453V400H605.389Z" fill="#A571E6"/>
</g>
<path d="M775.4 401.28C771.731 401.28 768.787 400.213 766.568 398.08C764.435 395.947 763.368 393.045 763.368 389.376C763.368 385.707 764.435 382.805 766.568 380.672C768.787 378.453 771.731 377.344 775.4 377.344C779.069 377.344 781.971 378.453 784.104 380.672C786.323 382.805 787.432 385.707 787.432 389.376C787.432 393.045 786.323 395.947 784.104 398.08C781.971 400.213 779.069 401.28 775.4 401.28ZM848.31 401.408C838.838 401.408 831.329 398.805 825.782 393.6C820.321 388.309 817.59 381.227 817.59 372.352H833.59C833.59 377.045 834.913 380.715 837.558 383.36C840.203 386.005 843.787 387.328 848.31 387.328C852.833 387.328 856.417 386.048 859.062 383.488C861.707 380.843 863.03 377.173 863.03 372.48V321.408H841.27V306.56H879.03V372.48C879.03 381.44 876.257 388.523 870.71 393.728C865.249 398.848 857.782 401.408 848.31 401.408ZM894.98 400L918.532 306.56H939.14L962.82 400H946.436L941.316 377.344H916.484L911.364 400H894.98ZM919.428 364.288H938.372L932.74 339.2C931.801 335.019 930.991 331.264 930.308 327.936C929.625 324.523 929.156 322.048 928.9 320.512C928.644 322.048 928.175 324.523 927.492 327.936C926.895 331.264 926.084 334.976 925.06 339.072L919.428 364.288ZM976.978 400V306.56H1006.55C1012.78 306.56 1018.15 307.712 1022.67 310.016C1027.28 312.32 1030.87 315.563 1033.43 319.744C1035.99 323.84 1037.27 328.704 1037.27 334.336C1037.27 340.48 1035.69 345.899 1032.53 350.592C1029.46 355.285 1025.28 358.613 1019.99 360.576L1038.55 400H1020.63L1004.37 362.88H992.978V400H976.978ZM992.978 348.8H1006.55C1011.07 348.8 1014.61 347.563 1017.17 345.088C1019.73 342.613 1021.01 339.2 1021.01 334.848C1021.01 330.411 1019.73 326.955 1017.17 324.48C1014.61 321.92 1011.07 320.64 1006.55 320.64H992.978V348.8Z" fill="#A571E6"/>
</g>
<g clip-path="url(#clip3_65_321)">
<path d="M416.591 680V586.56H436.175L462.159 662.08C461.903 659.349 461.604 656.149 461.263 652.48C461.007 648.725 460.794 644.928 460.623 641.088C460.452 637.163 460.367 633.749 460.367 630.848V586.56H474.959V680H455.375L429.647 604.48C429.818 606.955 430.031 609.941 430.287 613.44C430.543 616.939 430.756 620.523 430.927 624.192C431.098 627.861 431.183 631.232 431.183 634.304V680H416.591ZM522.525 681.28C516.552 681.28 511.346 680.171 506.909 677.952C502.557 675.648 499.186 672.448 496.797 668.352C494.493 664.171 493.341 659.264 493.341 653.632V612.928C493.341 607.296 494.493 602.432 496.797 598.336C499.186 594.155 502.557 590.955 506.909 588.736C511.346 586.432 516.552 585.28 522.525 585.28C528.584 585.28 533.789 586.432 538.141 588.736C542.493 590.955 545.821 594.155 548.125 598.336C550.514 602.432 551.709 607.253 551.709 612.8V653.632C551.709 659.264 550.514 664.171 548.125 668.352C545.821 672.448 542.493 675.648 538.141 677.952C533.789 680.171 528.584 681.28 522.525 681.28ZM522.525 667.2C526.877 667.2 530.162 666.048 532.381 663.744C534.6 661.355 535.709 657.984 535.709 653.632V612.928C535.709 608.491 534.6 605.12 532.381 602.816C530.162 600.512 526.877 599.36 522.525 599.36C518.173 599.36 514.888 600.512 512.669 602.816C510.45 605.12 509.341 608.491 509.341 612.928V653.632C509.341 657.984 510.45 661.355 512.669 663.744C514.973 666.048 518.258 667.2 522.525 667.2ZM591.211 680V601.408H566.763V586.56H631.787V601.408H607.339V680H591.211Z" fill="#DB5C5C"/>
<path d="M742.4 681.28C738.731 681.28 735.787 680.213 733.568 678.08C731.435 675.947 730.368 673.045 730.368 669.376C730.368 665.707 731.435 662.805 733.568 660.672C735.787 658.453 738.731 657.344 742.4 657.344C746.069 657.344 748.971 658.453 751.104 660.672C753.323 662.805 754.432 665.707 754.432 669.376C754.432 673.045 753.323 675.947 751.104 678.08C748.971 680.213 746.069 681.28 742.4 681.28ZM792.398 680L782.798 586.56H796.622L802.254 651.84C802.425 653.291 802.553 655.083 802.638 657.216C802.809 659.264 802.937 661.355 803.022 663.488C803.193 665.621 803.278 667.499 803.278 669.12C803.449 667.499 803.619 665.621 803.79 663.488C803.961 661.355 804.131 659.264 804.302 657.216C804.558 655.083 804.771 653.291 804.942 651.84L812.622 586.56H826.062L833.23 651.84C833.486 653.291 833.699 655.083 833.87 657.216C834.126 659.264 834.382 661.355 834.638 663.488C834.894 665.621 835.107 667.499 835.278 669.12C835.363 667.499 835.449 665.621 835.534 663.488C835.619 661.355 835.705 659.264 835.79 657.216C835.961 655.083 836.131 653.291 836.302 651.84L841.806 586.56H855.502L845.39 680H827.726L820.814 614.464C820.643 612.843 820.43 610.965 820.174 608.832C820.003 606.613 819.833 604.437 819.662 602.304C819.491 600.085 819.363 598.208 819.278 596.672C819.193 598.208 819.022 600.085 818.766 602.304C818.595 604.437 818.425 606.613 818.254 608.832C818.083 610.965 817.913 612.843 817.742 614.464L810.19 680H792.398ZM861.98 680L885.532 586.56H906.14L929.82 680H913.436L908.316 657.344H883.484L878.364 680H861.98ZM886.428 644.288H905.372L899.74 619.2C898.801 615.019 897.991 611.264 897.308 607.936C896.625 604.523 896.156 602.048 895.9 600.512C895.644 602.048 895.175 604.523 894.492 607.936C893.895 611.264 893.084 614.976 892.06 619.072L886.428 644.288ZM943.978 680V586.56H973.546C979.775 586.56 985.151 587.712 989.674 590.016C994.282 592.32 997.866 595.563 1000.43 599.744C1002.99 603.84 1004.27 608.704 1004.27 614.336C1004.27 620.48 1002.69 625.899 999.53 630.592C996.458 635.285 992.277 638.613 986.986 640.576L1005.55 680H987.626L971.37 642.88H959.978V680H943.978ZM959.978 628.8H973.546C978.069 628.8 981.61 627.563 984.17 625.088C986.73 622.613 988.01 619.2 988.01 614.848C988.01 610.411 986.73 606.955 984.17 604.48C981.61 601.92 978.069 600.64 973.546 600.64H959.978V628.8Z" fill="#DB5C5C"/>
</g>
</g>
<defs>
<clipPath id="clip0_65_321">
<rect width="1424" height="1226" fill="white"/>
</clipPath>
<clipPath id="clip1_65_321">
<rect width="804" height="255" fill="white" transform="translate(306 226)"/>
</clipPath>
<clipPath id="clip2_65_321">
<rect width="355" height="169" fill="white" transform="translate(316 269)"/>
</clipPath>
<clipPath id="clip3_65_321">
<rect width="680" height="255" fill="white" transform="translate(397 506)"/>
</clipPath>
</defs>
</svg>
